<svg xmlns="http://www.w3.org/2000/svg" viewBox="0 0 598.6 206.08"><g id="Calque_2" data-name="Calque 2"><g id="LOGOS"><polygon points="82.57 3.56 20.74 64.03 19.16 64.03 19.16 3.56 0.18 3.56 0.18 143.45 19.16 143.45 19.16 73.51 20.74 73.51 85.94 143.45 113.59 143.45 41.48 68.16 109.05 3.56 82.57 3.56" style="fill:#ffffff"/><polygon points="124.26 3.56 214.54 3.56 214.54 21.34 143.23 21.34 143.23 63.54 188.55 63.54 188.55 81.32 143.23 81.32 143.23 125.66 213.97 125.66 213.97 143.45 124.26 143.45 124.26 3.56" style="fill:#ffffff"/><path d="M490.24,65.21v69c-13.65,8.28-36,12.83-53,12.83-47.42,0-74.87-33.78-74.87-73.49C362.4,32,392.61,0,435.31,0,461,0,476.59,6.93,487.47,18.18L474,32.61c-11.45-11.07-24.68-14.82-38.71-14.82-32,0-52.77,25.09-52.77,55.72,0,31.6,23.52,55.71,54.35,55.71,13.23,0,25.88-2.56,34.37-7.3V83h-31V65.21Z" style="fill:#ffffff"/><polygon points="504.49 3.56 504.49 143.45 598.36 143.45 598.36 125.67 523.47 125.67 523.47 80.82 569.41 80.82 569.41 63.04 523.47 63.04 523.47 21.34 594.78 21.34 594.78 3.56 504.49 3.56" style="fill:#ffffff"/><path d="M237.77,125.61v17.84h41.78c50,0,76.66-34.18,76.66-69.94,0-25.89-14.42-69.95-73.49-69.95h-45V21.38h43.56c45.46,0,54.74,34.35,54.74,52.13,0,34.58-27.27,52.1-59.29,52.1Z" style="fill:#ffffff"/><polygon points="233.23 79.12 198.52 72.64 233.23 66.16 239.7 31.45 246.18 66.16 280.88 72.64 246.18 79.12 239.7 113.8 233.23 79.12" style="fill:#ffffff"/><path d="M578.47,205.38H598.6v-3.72H582.73v-29h-4.26ZM530.57,189a13.28,13.28,0,1,1,13.25,13.29A13.21,13.21,0,0,1,530.57,189m-4.25,0a17.53,17.53,0,1,0,17.5-17.08A17.23,17.23,0,0,0,526.32,189m-46.24,0a13.27,13.27,0,1,1,13.25,13.29A13.21,13.21,0,0,1,480.08,189m-4.26,0a17.53,17.53,0,1,0,17.51-17.08A17.24,17.24,0,0,0,475.82,189m-44.53,16.37h4.25V191.05h18.88v14.33h4.3v-32.7h-4.3v14.64H435.54V172.68h-4.25ZM413.81,183c-2.36-7.12-9.39-11.09-16.22-11.09a17.06,17.06,0,1,0,0,34.1c6.86,0,13.86-4,16.22-11h-4.44a12.8,12.8,0,0,1-11.78,7.3,13.32,13.32,0,0,1,0-26.64A12.87,12.87,0,0,1,409.4,183ZM339,195.89c0,5,4.4,10.19,12.5,10.19,8.37,0,13.46-3.61,13.46-9.74,0-7-6.07-8.66-11.66-9.65-5.26-.64-9-1.69-9-5.31,0-2.79,1.73-5.68,7.76-5.68,4.55,0,7.32,2.27,7.32,5.59h4.28c0-5.49-4.24-9.36-11.23-9.36-9.07,0-12.41,4.5-12.41,9.82,0,6.51,6.83,7.52,11.38,8.22,5.24,1,9.25,2.07,9.25,6.37,0,3.9-3.07,6-9.09,6-4.71,0-8.31-3-8.31-6.44Zm-65.42,0c0,5,4.4,10.19,12.5,10.19,8.37,0,13.47-3.61,13.47-9.74,0-7-6.08-8.66-11.66-9.65-5.27-.64-9-1.69-9-5.31,0-2.79,1.73-5.68,7.77-5.68,4.54,0,7.31,2.27,7.31,5.59h4.28c0-5.49-4.23-9.36-11.23-9.36-9.07,0-12.4,4.5-12.4,9.82,0,6.51,6.82,7.52,11.37,8.22,5.24,1,9.26,2.07,9.26,6.37,0,3.9-3.08,6-9.09,6-4.72,0-8.32-3-8.32-6.44Zm-40.64,0c0,5,4.4,10.19,12.51,10.19,8.36,0,13.46-3.61,13.46-9.74,0-7-6.08-8.66-11.66-9.65-5.27-.64-9-1.69-9-5.31,0-2.79,1.72-5.68,7.76-5.68,4.55,0,7.31,2.27,7.31,5.59h4.29c0-5.49-4.24-9.36-11.23-9.36-9.07,0-12.42,4.5-12.42,9.82,0,6.51,6.84,7.52,11.37,8.22,5.25,1,9.27,2.07,9.27,6.37,0,3.9-3.08,6-9.1,6-4.7,0-8.32-3-8.32-6.44Zm-36.38,9.49h22v-3.72h-17.7V191.05H216v-3.73h-15.2V176.43h17.48v-3.75H196.51Zm-18.76-32.7H173.5V198l-20.16-25.27h-3.57v32.7H154V180.16l20.13,25.22h3.6Zm-51,32.7H131v-32.7h-4.25ZM84,195.89c0,5,4.4,10.19,12.5,10.19,8.36,0,13.46-3.61,13.46-9.74,0-7-6.08-8.66-11.66-9.65-5.26-.64-9-1.69-9-5.31,0-2.79,1.73-5.68,7.77-5.68,4.54,0,7.31,2.27,7.31,5.59h4.28c0-5.49-4.23-9.36-11.23-9.36-9.07,0-12.41,4.5-12.41,9.82,0,6.51,6.83,7.52,11.37,8.22,5.24,1,9.26,2.07,9.26,6.37,0,3.9-3.07,6-9.09,6-4.71,0-8.32-3-8.32-6.44Zm-20.18-3.12c0,5.28-3.49,9.56-9.28,9.56-6,0-9.3-4.35-9.3-9.64v-20H40.93v20c0,8.12,5.91,13.33,13.56,13.33,7.89,0,13.54-5.45,13.54-13.33v-20H63.77ZM15.34,205.38c5.1,0,9.86-3.29,9.86-9.23A8.56,8.56,0,0,0,19,188.09a7.56,7.56,0,0,0,4.33-6.78c0-5.14-3.89-8.63-9.33-8.63H0v32.7Zm-1.59-29.12a5.29,5.29,0,0,1,0,10.58H4.25V176.26Zm1.26,14A5.7,5.7,0,0,1,20.77,196a5.8,5.8,0,0,1-5.81,5.8H4.25V190.21Z" style="fill:#ffffff"/></g></g></svg>